<svg width="25" height="25" viewBox="0 0 25 25" fill="none" xmlns="http://www.w3.org/2000/svg">
<path d="M20.75 9.011C21.634 9.295 22.25 10.139 22.25 11.108V15.394C22.25 16.53 21.403 17.494 20.27 17.587C19.93 17.614 19.59 17.639 19.25 17.659V20.75L16.25 17.75C14.896 17.75 13.556 17.695 12.23 17.587C11.9413 17.5637 11.6605 17.4813 11.405 17.345M20.75 9.011C20.5955 8.96127 20.4358 8.92939 20.274 8.916C17.5959 8.69368 14.9041 8.69368 12.226 8.916C11.095 9.01 10.25 9.973 10.25 11.108V15.394C10.25 16.231 10.71 16.974 11.405 17.345M20.75 9.011V7.137C20.75 5.516 19.598 4.111 17.99 3.902C15.9208 3.63379 13.8365 3.49951 11.75 3.5C9.635 3.5 7.552 3.637 5.51 3.902C3.902 4.111 2.75 5.516 2.75 7.137V13.363C2.75 14.984 3.902 16.389 5.51 16.598C6.087 16.673 6.667 16.738 7.25 16.792V21.5L11.405 17.345" stroke="#1E1E1E" stroke-width="1.5" stroke-linecap="round" stroke-linejoin="round"/>
</svg>
