<svg width="25" height="25" viewBox="0 0 25 25" fill="none" xmlns="http://www.w3.org/2000/svg">
<path d="M3.51001 11.72V16.21C3.51001 20.7 5.31001 22.5 9.80001 22.5H15.19C19.68 22.5 21.48 20.7 21.48 16.21V11.72" stroke="#1E1E1E" stroke-width="1.5" stroke-linecap="round" stroke-linejoin="round"/>
<path d="M12.5 12.5C14.33 12.5 15.68 11.01 15.5 9.18L14.84 2.5H10.17L9.49999 9.18C9.31999 11.01 10.67 12.5 12.5 12.5Z" stroke="#1E1E1E" stroke-width="1.5" stroke-linecap="round" stroke-linejoin="round"/>
<path d="M18.81 12.5C20.83 12.5 22.31 10.86 22.11 8.85L21.83 6.1C21.47 3.5 20.47 2.5 17.85 2.5H14.8L15.5 9.51C15.67 11.16 17.16 12.5 18.81 12.5Z" stroke="#1E1E1E" stroke-width="1.5" stroke-linecap="round" stroke-linejoin="round"/>
<path d="M6.14 12.5C7.79 12.5 9.28 11.16 9.44 9.51L9.66 7.3L10.14 2.5H7.09C4.47001 2.5 3.47 3.5 3.11 6.1L2.84 8.85C2.64 10.86 4.12 12.5 6.14 12.5Z" stroke="#1E1E1E" stroke-width="1.5" stroke-linecap="round" stroke-linejoin="round"/>
<path d="M12.5 17.5C10.83 17.5 10 18.33 10 20V22.5H15V20C15 18.33 14.17 17.5 12.5 17.5Z" stroke="#1E1E1E" stroke-width="1.5" stroke-linecap="round" stroke-linejoin="round"/>
</svg>
