<svg width="24" height="25" viewBox="0 0 24 25" fill="none" xmlns="http://www.w3.org/2000/svg">
<g clip-path="url(#clip0_307_1911)">
<path d="M24 13.5C24 14.47 23.299 15.5 22 15.5H21.67L21.451 17.155C21.2893 18.356 20.6982 19.4578 19.7869 20.2566C18.8756 21.0553 17.7058 21.4971 16.494 21.5H16C16 23.154 14.654 24.5 13 24.5H6.00002C4.34602 24.5 3.00002 23.154 3.00002 21.5V20.529C3.00002 19.633 2.73702 18.798 2.26002 18.174C1.02095 16.5567 0.257045 14.6262 0.0540235 12.599C0.0277907 12.3351 0.107448 12.0716 0.275477 11.8664C0.443505 11.6613 0.686142 11.5313 0.950024 11.505C1.08081 11.4913 1.213 11.5037 1.33896 11.5415C1.46493 11.5792 1.58216 11.6415 1.68389 11.7248C1.78562 11.8081 1.86983 11.9108 1.93164 12.0269C1.99346 12.1429 2.03165 12.2701 2.04402 12.401C2.20958 14.0583 2.83435 15.6365 3.84802 16.958C4.59102 17.929 4.99902 19.197 4.99902 20.529V21.5C4.99902 22.052 5.44802 22.5 5.99902 22.5H12.999C13.55 22.5 13.999 22.052 13.999 21.5V20.5C13.999 20.2348 14.1044 19.9804 14.2919 19.7929C14.4795 19.6054 14.7338 19.5 14.999 19.5H16.493C17.22 19.4983 17.9217 19.2334 18.4684 18.7543C19.0151 18.2753 19.3699 17.6144 19.467 16.894L19.801 14.37C19.8328 14.1296 19.9508 13.909 20.1331 13.7491C20.3154 13.5893 20.5496 13.5011 20.792 13.501H21.999C21.917 12.694 19.541 7.77899 18.222 6.14799C16.477 3.81899 13.853 2.50099 10.999 2.50099C10.7338 2.50099 10.4795 2.39564 10.2919 2.2081C10.1044 2.02056 9.99902 1.76621 9.99902 1.50099C9.99902 1.23578 10.1044 0.981423 10.2919 0.793886C10.4795 0.60635 10.7338 0.500993 10.999 0.500993C14.489 0.500993 17.696 2.11099 19.799 4.91899C21.067 6.48499 23.999 12.08 23.999 13.501L24 13.5ZM1.50002 3.49999C1.69707 3.49993 1.89218 3.46105 2.0742 3.38558C2.25623 3.31012 2.4216 3.19953 2.56089 3.06015C2.70018 2.92077 2.81065 2.75532 2.886 2.57325C2.96134 2.39117 3.00009 2.19604 3.00002 1.99899C2.99996 1.80194 2.96108 1.60684 2.88561 1.42481C2.81015 1.24279 2.69956 1.07741 2.56018 0.938126C2.4208 0.798838 2.25535 0.688367 2.07328 0.61302C1.8912 0.537674 1.69607 0.498927 1.49902 0.498993C1.10107 0.499126 0.719461 0.657341 0.438156 0.938833C0.156852 1.22032 -0.00110909 1.60204 -0.000976479 1.99999C-0.000843871 2.39795 0.157371 2.77956 0.438863 3.06086C0.720356 3.34217 1.10207 3.50013 1.50002 3.49999ZM6.50002 5.49999C6.89798 5.49986 7.27959 5.34165 7.56089 5.06015C7.8422 4.77866 8.00016 4.39695 8.00002 3.99899C7.99989 3.60104 7.84168 3.21943 7.56018 2.93813C7.27869 2.65682 6.89698 2.49886 6.49902 2.49899C6.10107 2.49913 5.71946 2.65734 5.43816 2.93883C5.15685 3.22033 4.99889 3.60204 4.99902 3.99999C4.99916 4.39795 5.15737 4.77956 5.43886 5.06086C5.72036 5.34217 6.10207 5.50013 6.50002 5.49999ZM1.00002 6.99999C1.00016 7.39795 1.15837 7.77956 1.43986 8.06086C1.72136 8.34217 2.10307 8.50013 2.50102 8.49999C2.89898 8.49986 3.28059 8.34165 3.56189 8.06015C3.8432 7.77866 4.00116 7.39695 4.00102 6.99899C4.00089 6.60104 3.84268 6.21943 3.56118 5.93813C3.27969 5.65682 2.89798 5.49886 2.50002 5.49899C2.10207 5.49913 1.72046 5.65734 1.43916 5.93883C1.15785 6.22033 0.999891 6.60204 1.00002 6.99999ZM7.00002 14.5C7.35002 14.5 7.68302 14.425 8.00002 14.312V19.5C8.00002 19.7652 8.10538 20.0196 8.29292 20.2071C8.48045 20.3946 8.73481 20.5 9.00002 20.5C9.26524 20.5 9.5196 20.3946 9.70713 20.2071C9.89467 20.0196 10 19.7652 10 19.5V13.469C10.7357 13.3655 11.4177 13.0253 11.943 12.5H14C15.654 12.5 17 11.154 17 9.49999C17.0023 8.91307 16.8307 8.33863 16.5068 7.84919C16.1828 7.35974 15.7212 6.97725 15.18 6.74999C14.8258 6.32191 14.3734 5.98571 13.8614 5.76999C13.3494 5.55428 12.7928 5.46542 12.239 5.51099C11.9596 5.19246 11.6152 4.93743 11.229 4.76305C10.8428 4.58867 10.4238 4.49898 10 4.49999C9.73481 4.49999 9.48045 4.60535 9.29292 4.79289C9.10538 4.98042 9.00002 5.23478 9.00002 5.49999C9.00002 5.76521 9.10538 6.01956 9.29292 6.2071C9.48045 6.39464 9.73481 6.49999 10 6.49999C10.377 6.49999 10.718 6.71499 10.89 7.06099C10.9948 7.27252 11.1711 7.44015 11.3876 7.53422C11.6041 7.62829 11.8469 7.64273 12.073 7.57499C12.241 7.52399 12.377 7.50099 12.5 7.50099C12.994 7.50099 13.457 7.74599 13.739 8.15699C13.869 8.34599 14.06 8.48599 14.281 8.55099C14.712 8.67799 15.001 9.05999 15.001 9.50199C15.001 10.053 14.552 10.502 14.001 10.502H11.493C11.179 10.502 10.882 10.65 10.693 10.901C10.5553 11.0875 10.3757 11.2391 10.1686 11.3435C9.96159 11.4479 9.7329 11.5022 9.50103 11.502C9.37803 11.502 9.24203 11.479 9.07403 11.428C8.84788 11.3609 8.6053 11.3756 8.38895 11.4696C8.17259 11.5636 7.99628 11.7309 7.89102 11.942C7.81039 12.1097 7.68413 12.2513 7.52671 12.3505C7.3693 12.4497 7.1871 12.5026 7.00102 12.503C6.45002 12.503 6.00102 12.054 6.00102 11.503C6.00102 10.952 6.45002 10.503 7.00102 10.503C7.55202 10.503 8.00103 10.055 8.00103 9.50299C8.00103 8.95099 7.55302 8.50299 7.00102 8.50299C5.34702 8.50299 4.00102 9.84899 4.00102 11.503C4.00102 13.157 5.34702 14.503 7.00102 14.503L7.00002 14.5Z" fill="#1E1E1E"/>
</g>
<defs>
<clipPath id="clip0_307_1911">
<rect width="24" height="24" fill="white" transform="translate(0 0.5)"/>
</clipPath>
</defs>
</svg>
